<svg xmlns="http://www.w3.org/2000/svg" width="100" height="100" viewBox="0 0 100 100">
    <circle fill="#333f4d" cx="50" cy="50" r="50"/>
    <path fill="#fff" d="M13.888 48.227l7.874 3.631c.315.15.541.299.677.446s.204.313.204.5c0 .215-.063.387-.188.516s-.299.193-.521.193a1.19 1.19 0 0 1-.333-.054c-.122-.036-.294-.107-.516-.215l-8.54-3.985c-.029-.007-.064-.021-.107-.043-.659-.301-.988-.63-.988-.988s.322-.68.967-.967l.129-.064 8.54-3.921c.193-.093.358-.159.494-.199s.254-.059.354-.059c.222 0 .396.061.521.183s.188.286.188.494c0 .193-.068.363-.204.51s-.362.292-.677.435l-7.874 3.588zm19.434 5.307c1.01 0 1.83-.319 2.46-.956s.945-1.465.945-2.481c0-.995-.32-1.815-.961-2.46s-1.456-.967-2.444-.967c-.995 0-1.81.32-2.444.961s-.951 1.463-.951 2.465.317 1.826.951 2.471 1.448.967 2.444.967h0zm-3.352-6.886c.401-.501.902-.884 1.504-1.149s1.282-.397 2.041-.397c1.439 0 2.639.485 3.599 1.456s1.439 2.172 1.439 3.604a4.87 4.87 0 0 1-1.477 3.588 4.91 4.91 0 0 1-3.604 1.472c-.752 0-1.407-.132-1.966-.397s-1.017-.666-1.375-1.203v.859c0 .193-.034.333-.102.419s-.181.129-.338.129h-1.966c-.279 0-.487-.064-.623-.193s-.204-.322-.204-.58c0-.286.082-.482.247-.585s.491-.156.978-.156h.226v-11h-.204c-.487 0-.82-.057-.999-.172s-.269-.315-.269-.602c0-.258.072-.451.215-.58s.354-.193.634-.193h1.633c.215 0 .371.036.467.107s.145.183.145.333v5.242zm15.199 7.144c1.103 0 2.007-.349 2.712-1.047s1.058-1.588 1.058-2.669-.354-1.975-1.063-2.68-1.611-1.058-2.707-1.058-1.996.353-2.702 1.058-1.058 1.599-1.058 2.68c0 1.089.351 1.98 1.053 2.675s1.604 1.042 2.707 1.042h0zm5.64-3.717c0 1.533-.523 2.786-1.568 3.76s-2.403 1.461-4.071 1.461c-1.661 0-3.015-.487-4.061-1.461s-1.568-2.227-1.568-3.76.523-2.784 1.568-3.754 2.399-1.456 4.061-1.456 3.017.487 4.066 1.461 1.574 2.224 1.574 3.749h0zm10.021 4.952c-.15 0-.256-.038-.317-.113s-.091-.22-.091-.435v-.881a4.38 4.38 0 0 1-1.611 1.251 4.94 4.94 0 0 1-2.095.446c-1.354 0-2.487-.482-3.4-1.445s-1.37-2.161-1.37-3.593c0-1.482.487-2.716 1.461-3.701s2.188-1.477 3.642-1.477c.738 0 1.4.131 1.987.392s1.092.646 1.515 1.155v-4.114h-.569c-.623 0-1.026-.056-1.208-.167s-.274-.313-.274-.607c0-.258.073-.451.22-.58s.36-.193.639-.193h2.202c.215 0 .371.036.467.107s.145.183.145.333v12.106h.483c.351 0 .605.059.763.177s.236.306.236.564c0 .243-.068.433-.204.569a.74.74 0 0 1-.548.204h-2.073zm-7.036-4.823c0 .988.319 1.798.956 2.428s1.447.945 2.428.945c.988 0 1.801-.328 2.438-.983s.956-1.488.956-2.498c0-.995-.317-1.815-.951-2.46s-1.448-.967-2.444-.967c-1.01 0-1.826.326-2.449.978s-.935 1.504-.935 2.557h0zm15.424 7.573h.462c.523 0 .877.056 1.063.167s.279.313.279.607c0 .251-.073.44-.22.569s-.36.193-.639.193H65.21c-.337 0-.571-.057-.704-.172s-.199-.312-.199-.591c0-.258.07-.451.209-.58s.349-.193.628-.193h2.331l1.74-3.427-3.942-7.724c-.473 0-.797-.057-.972-.172s-.263-.315-.263-.602c0-.251.072-.439.215-.564s.358-.188.645-.188h2.997c.401 0 .67.056.806.167s.204.306.204.585c0 .286-.09.487-.269.602s-.508.172-.988.172h-.397l2.911 5.919 2.965-5.919h-.419c-.494 0-.834-.057-1.021-.172s-.279-.315-.279-.602c0-.279.068-.474.204-.585s.408-.167.816-.167h2.653c.294 0 .51.063.65.188s.209.313.209.564c0 .272-.079.465-.236.58s-.437.179-.838.193l-5.65 11.15zm18.101-9.55l-7.853-3.588c-.329-.15-.562-.299-.698-.446s-.204-.313-.204-.5c0-.208.063-.372.188-.494s.295-.183.51-.183c.107 0 .227.02.36.059s.299.106.5.199l8.54 3.921.129.064c.645.286.967.609.967.967 0 .351-.315.673-.945.967l-.15.064-8.54 3.985-.043.021c-.372.165-.645.247-.816.247-.215 0-.385-.064-.51-.193s-.188-.301-.188-.516c0-.186.068-.353.204-.5s.369-.295.698-.446l7.853-3.631z"/>
</svg>
